<svg width="38" height="39" viewBox="0 0 38 39" fill="none" xmlns="http://www.w3.org/2000/svg">
<path d="M14.7293 9.85411L22.9812 9.8129C26.1248 9.79721 28.6917 12.3386 28.7074 15.4822L28.7486 23.7342C28.7562 25.2453 28.1631 26.6976 27.0999 27.7714C26.0367 28.8453 24.5905 29.4528 23.0793 29.4604L14.8274 29.5016C11.6838 29.5173 9.11686 26.9759 9.10116 23.8323L9.05995 15.5803C9.0524 14.0692 9.64546 12.6169 10.7087 11.5431C11.7719 10.4692 13.2181 9.86166 14.7293 9.85411ZM14.5426 11.8198C13.6046 11.8245 12.707 12.2016 12.0471 12.8682C11.3871 13.5347 11.019 14.4361 11.0237 15.3741L11.0669 24.0189C11.0767 25.9739 12.6662 27.5476 14.6211 27.5378L23.266 27.4947C24.2039 27.49 25.1016 27.1129 25.7615 26.4463C26.4214 25.7798 26.7896 24.8784 26.7849 23.9404L26.7417 15.2956C26.7319 13.3406 25.1424 11.7669 23.1875 11.7767L14.5426 11.8198ZM24.0299 13.2461C24.3555 13.2444 24.6685 13.3723 24.9 13.6014C25.1314 13.8305 25.2623 14.1422 25.264 14.4679C25.2656 14.7936 25.1378 15.1066 24.9086 15.338C24.6795 15.5694 24.3678 15.7004 24.0421 15.702C23.7165 15.7036 23.4035 15.5758 23.172 15.3467C22.9406 15.1175 22.8097 14.8058 22.808 14.4802C22.8064 14.1545 22.9342 13.8415 23.1634 13.6101C23.3925 13.3786 23.7042 13.2477 24.0299 13.2461ZM18.8798 14.7454C20.1825 14.7389 21.4344 15.2501 22.3602 16.1667C23.2859 17.0832 23.8097 18.33 23.8162 19.6327C23.8227 20.9354 23.3114 22.1874 22.3949 23.1131C21.4783 24.0389 20.2315 24.5626 18.9288 24.5691C17.6261 24.5756 16.3742 24.0644 15.4484 23.1478C14.5227 22.2313 13.9989 20.9845 13.9924 19.6818C13.9859 18.3791 14.4972 17.1271 15.4137 16.2014C16.3303 15.2756 17.5771 14.7519 18.8798 14.7454ZM18.8896 16.7101C18.108 16.714 17.3599 17.0283 16.81 17.5837C16.26 18.1392 15.9533 18.8903 15.9572 19.672C15.9611 20.4536 16.2753 21.2017 16.8308 21.7516C17.3862 22.3015 18.1374 22.6083 18.919 22.6044C19.7006 22.6005 20.4487 22.2862 20.9986 21.7308C21.5486 21.1753 21.8553 20.4242 21.8514 19.6425C21.8475 18.8609 21.5333 18.1128 20.9778 17.5629C20.4224 17.013 19.6712 16.7062 18.8896 16.7101Z" fill="#1E1F1E"/>
</svg>
