<svg width="39" height="38" viewBox="0 0 39 38" fill="none" xmlns="http://www.w3.org/2000/svg">
<path d="M29.529 13.261C28.7743 13.6087 27.96 13.8387 27.1157 13.9509C27.9776 13.426 28.6415 12.5974 28.9509 11.6037C28.138 12.0989 27.2359 12.4473 26.284 12.6485C25.5037 11.8075 24.4108 11.3218 23.173 11.328C20.8644 11.3395 18.9877 13.2351 18.9993 15.5633C19.001 15.8973 19.0419 16.2213 19.1122 16.5255C15.6141 16.3661 12.4916 14.7018 10.406 12.1678C10.0456 12.7885 9.84298 13.5165 9.84681 14.2828C9.85412 15.7465 10.5974 17.0396 11.7406 17.7707C11.0431 17.7742 10.3938 17.5809 9.82253 17.289L9.82267 17.3185C9.83288 19.3619 11.2953 21.0639 13.2227 21.4374C12.6054 21.6097 11.9565 21.6365 11.3271 21.5157C11.5981 22.3518 12.1243 23.082 12.8317 23.6035C13.5392 24.1251 14.3923 24.4119 15.2712 24.4235C13.7874 25.6102 11.9441 26.2569 10.0441 26.2572C9.71014 26.2589 9.37603 26.2409 9.04183 26.2033C10.9143 27.3925 13.138 28.0789 15.5153 28.067C23.2564 28.0283 27.478 21.5824 27.4502 16.0123C27.4493 15.8257 27.4484 15.6488 27.4376 15.4622C28.2599 14.8687 28.9635 14.1186 29.529 13.261Z" fill="#1E1F1E"/>
</svg>
