<svg width="28" height="28" viewBox="0 0 21 14" fill="none" xmlns="http://www.w3.org/2000/svg">
<path d="M8.76511 9.83991L13.8489 6.86733L8.73567 3.94567L8.76511 9.83991ZM20.0829 2.09121C20.213 2.55229 20.3045 3.17074 20.3673 3.95635C20.44 4.7419 20.4729 5.41959 20.4758 6.00902L20.5389 6.83392C20.5496 8.98532 20.4003 10.5677 20.1303 11.5809C19.8891 12.4663 19.3222 13.0389 18.4393 13.2889C17.9782 13.419 17.1338 13.5116 15.8374 13.577C14.5606 13.6521 13.3918 13.6875 12.3112 13.6929L10.7495 13.7596C6.63333 13.7802 4.06855 13.6358 3.05533 13.3658C2.16997 13.1246 1.59735 12.5577 1.34734 11.6747C1.21732 11.2137 1.12582 10.5952 1.06295 9.80961C0.990261 9.02405 0.957404 8.34636 0.954461 7.75694L0.891397 6.93204C0.880653 4.78064 1.02993 3.19823 1.29995 2.18501C1.54112 1.29965 2.10806 0.727028 2.99097 0.477019C3.45204 0.347004 4.29644 0.254371 5.59288 0.188953C6.86963 0.113809 8.0385 0.0785 9.11912 0.0731034L10.6808 0.00636064C14.7969 -0.0141952 17.3617 0.13018 18.3749 0.400192C19.2603 0.64137 19.8329 1.2083 20.0829 2.09121Z" fill="#1E1F1E"/>
</svg>
